<mxfile host="Electron" modified="2023-12-13T22:59:48.676Z" agent="Mozilla/5.0 (Windows NT 10.0; Win64; x64) AppleWebKit/537.36 (KHTML, like Gecko) draw.io/22.1.2 Chrome/114.0.5735.289 Electron/25.9.4 Safari/537.36" etag="ej6KJhVwGksxBqVpEiqC" version="22.1.2" type="device">
  <diagram name="Page-1" id="58LX8rGzBcei4Hs5EpTu">
    <mxGraphModel dx="1036" dy="654" grid="1" gridSize="10" guides="1" tooltips="1" connect="1" arrows="1" fold="1" page="1" pageScale="1" pageWidth="850" pageHeight="1100" math="0" shadow="0">
      <root>
        <mxCell id="0" />
        <mxCell id="1" parent="0" />
        <mxCell id="LFB5g94-gbt0mbhVPxRE-1" value="Yumurta bisirmek" style="whiteSpace=wrap;html=1;aspect=fixed;" vertex="1" parent="1">
          <mxGeometry x="80" y="40" width="120" height="120" as="geometry" />
        </mxCell>
        <mxCell id="LFB5g94-gbt0mbhVPxRE-2" value="END" style="ellipse;whiteSpace=wrap;html=1;" vertex="1" parent="1">
          <mxGeometry x="360" y="920" width="120" height="80" as="geometry" />
        </mxCell>
        <mxCell id="LFB5g94-gbt0mbhVPxRE-5" value="" style="edgeStyle=orthogonalEdgeStyle;rounded=0;orthogonalLoop=1;jettySize=auto;html=1;" edge="1" parent="1" source="LFB5g94-gbt0mbhVPxRE-3" target="LFB5g94-gbt0mbhVPxRE-4">
          <mxGeometry relative="1" as="geometry" />
        </mxCell>
        <mxCell id="LFB5g94-gbt0mbhVPxRE-3" value="START" style="ellipse;whiteSpace=wrap;html=1;" vertex="1" parent="1">
          <mxGeometry x="360" y="60" width="120" height="80" as="geometry" />
        </mxCell>
        <mxCell id="LFB5g94-gbt0mbhVPxRE-7" value="TRUE" style="edgeStyle=orthogonalEdgeStyle;rounded=0;orthogonalLoop=1;jettySize=auto;html=1;" edge="1" parent="1" source="LFB5g94-gbt0mbhVPxRE-4" target="LFB5g94-gbt0mbhVPxRE-6">
          <mxGeometry relative="1" as="geometry" />
        </mxCell>
        <mxCell id="LFB5g94-gbt0mbhVPxRE-4" value="Yumurta varmi?" style="rhombus;whiteSpace=wrap;html=1;" vertex="1" parent="1">
          <mxGeometry x="360" y="220" width="120" height="80" as="geometry" />
        </mxCell>
        <mxCell id="LFB5g94-gbt0mbhVPxRE-9" value="TRUE" style="edgeStyle=orthogonalEdgeStyle;rounded=0;orthogonalLoop=1;jettySize=auto;html=1;" edge="1" parent="1" source="LFB5g94-gbt0mbhVPxRE-6" target="LFB5g94-gbt0mbhVPxRE-8">
          <mxGeometry relative="1" as="geometry" />
        </mxCell>
        <mxCell id="LFB5g94-gbt0mbhVPxRE-6" value="Yag varmi?" style="rhombus;whiteSpace=wrap;html=1;" vertex="1" parent="1">
          <mxGeometry x="360" y="380" width="120" height="80" as="geometry" />
        </mxCell>
        <mxCell id="LFB5g94-gbt0mbhVPxRE-16" value="TRUE" style="edgeStyle=orthogonalEdgeStyle;rounded=0;orthogonalLoop=1;jettySize=auto;html=1;" edge="1" parent="1" source="LFB5g94-gbt0mbhVPxRE-8" target="LFB5g94-gbt0mbhVPxRE-12">
          <mxGeometry relative="1" as="geometry" />
        </mxCell>
        <mxCell id="LFB5g94-gbt0mbhVPxRE-8" value="Qazan varmi?" style="rhombus;whiteSpace=wrap;html=1;" vertex="1" parent="1">
          <mxGeometry x="360" y="540" width="120" height="80" as="geometry" />
        </mxCell>
        <mxCell id="LFB5g94-gbt0mbhVPxRE-15" value="" style="edgeStyle=orthogonalEdgeStyle;rounded=0;orthogonalLoop=1;jettySize=auto;html=1;" edge="1" parent="1" source="LFB5g94-gbt0mbhVPxRE-12" target="LFB5g94-gbt0mbhVPxRE-13">
          <mxGeometry relative="1" as="geometry" />
        </mxCell>
        <mxCell id="LFB5g94-gbt0mbhVPxRE-12" value="Yumurtalari bisir." style="rounded=0;whiteSpace=wrap;html=1;" vertex="1" parent="1">
          <mxGeometry x="360" y="680" width="120" height="60" as="geometry" />
        </mxCell>
        <mxCell id="LFB5g94-gbt0mbhVPxRE-14" value="" style="edgeStyle=orthogonalEdgeStyle;rounded=0;orthogonalLoop=1;jettySize=auto;html=1;" edge="1" parent="1" source="LFB5g94-gbt0mbhVPxRE-13" target="LFB5g94-gbt0mbhVPxRE-2">
          <mxGeometry relative="1" as="geometry" />
        </mxCell>
        <mxCell id="LFB5g94-gbt0mbhVPxRE-13" value="Yumurta bisdi." style="shape=document;whiteSpace=wrap;html=1;boundedLbl=1;" vertex="1" parent="1">
          <mxGeometry x="360" y="800" width="120" height="80" as="geometry" />
        </mxCell>
        <mxCell id="LFB5g94-gbt0mbhVPxRE-20" value="FALSE" style="edgeStyle=orthogonalEdgeStyle;rounded=0;orthogonalLoop=1;jettySize=auto;html=1;exitX=1;exitY=0.5;exitDx=0;exitDy=0;entryX=0;entryY=0.5;entryDx=0;entryDy=0;" edge="1" parent="1" source="LFB5g94-gbt0mbhVPxRE-17" target="LFB5g94-gbt0mbhVPxRE-4">
          <mxGeometry relative="1" as="geometry" />
        </mxCell>
        <mxCell id="LFB5g94-gbt0mbhVPxRE-23" style="edgeStyle=orthogonalEdgeStyle;rounded=0;orthogonalLoop=1;jettySize=auto;html=1;exitX=0;exitY=0.5;exitDx=0;exitDy=0;entryX=0;entryY=0.5;entryDx=0;entryDy=0;" edge="1" parent="1" source="LFB5g94-gbt0mbhVPxRE-17" target="LFB5g94-gbt0mbhVPxRE-2">
          <mxGeometry relative="1" as="geometry" />
        </mxCell>
        <mxCell id="LFB5g94-gbt0mbhVPxRE-17" value="Bisire bilmirsen!" style="shape=document;whiteSpace=wrap;html=1;boundedLbl=1;" vertex="1" parent="1">
          <mxGeometry x="100" y="220" width="120" height="80" as="geometry" />
        </mxCell>
        <mxCell id="LFB5g94-gbt0mbhVPxRE-21" value="FALSE" style="edgeStyle=orthogonalEdgeStyle;rounded=0;orthogonalLoop=1;jettySize=auto;html=1;exitX=1;exitY=0.5;exitDx=0;exitDy=0;entryX=0;entryY=0.5;entryDx=0;entryDy=0;" edge="1" parent="1" source="LFB5g94-gbt0mbhVPxRE-18" target="LFB5g94-gbt0mbhVPxRE-6">
          <mxGeometry relative="1" as="geometry" />
        </mxCell>
        <mxCell id="LFB5g94-gbt0mbhVPxRE-27" style="edgeStyle=orthogonalEdgeStyle;rounded=0;orthogonalLoop=1;jettySize=auto;html=1;exitX=0;exitY=0.5;exitDx=0;exitDy=0;" edge="1" parent="1" source="LFB5g94-gbt0mbhVPxRE-18">
          <mxGeometry relative="1" as="geometry">
            <mxPoint x="350" y="960.7999267578125" as="targetPoint" />
            <Array as="points">
              <mxPoint x="80" y="420" />
              <mxPoint x="80" y="961" />
            </Array>
          </mxGeometry>
        </mxCell>
        <mxCell id="LFB5g94-gbt0mbhVPxRE-18" value="Bisire bilmirsen!" style="shape=document;whiteSpace=wrap;html=1;boundedLbl=1;" vertex="1" parent="1">
          <mxGeometry x="100" y="380" width="120" height="80" as="geometry" />
        </mxCell>
        <mxCell id="LFB5g94-gbt0mbhVPxRE-22" value="FALSE" style="edgeStyle=orthogonalEdgeStyle;rounded=0;orthogonalLoop=1;jettySize=auto;html=1;exitX=1;exitY=0.5;exitDx=0;exitDy=0;entryX=0;entryY=0.5;entryDx=0;entryDy=0;" edge="1" parent="1" source="LFB5g94-gbt0mbhVPxRE-19" target="LFB5g94-gbt0mbhVPxRE-8">
          <mxGeometry relative="1" as="geometry" />
        </mxCell>
        <mxCell id="LFB5g94-gbt0mbhVPxRE-28" style="edgeStyle=orthogonalEdgeStyle;rounded=0;orthogonalLoop=1;jettySize=auto;html=1;exitX=0;exitY=0.5;exitDx=0;exitDy=0;" edge="1" parent="1" source="LFB5g94-gbt0mbhVPxRE-19">
          <mxGeometry relative="1" as="geometry">
            <mxPoint x="350" y="960" as="targetPoint" />
            <Array as="points">
              <mxPoint x="80" y="580" />
              <mxPoint x="80" y="960" />
            </Array>
          </mxGeometry>
        </mxCell>
        <mxCell id="LFB5g94-gbt0mbhVPxRE-19" value="Bisire bilmirsen!" style="shape=document;whiteSpace=wrap;html=1;boundedLbl=1;" vertex="1" parent="1">
          <mxGeometry x="100" y="540" width="120" height="80" as="geometry" />
        </mxCell>
      </root>
    </mxGraphModel>
  </diagram>
</mxfile>
